<svg xmlns="http://www.w3.org/2000/svg" width="80" height="80" viewBox="0 0 80 80">
  <rect id="Retângulo_1196" data-name="Retângulo 1196" width="80" height="80" rx="18" fill="#ff4651"/>
  <path id="Caminho_411" data-name="Caminho 411" d="M31.069,29H7.595a3.452,3.452,0,0,1-3.452-3.452V2.071A2.071,2.071,0,1,0,0,2.071V25.545A7.6,7.6,0,0,0,7.595,33.14H31.069a2.071,2.071,0,1,0,0-4.143Z" transform="translate(22.689 22.961)" fill="#fff"/>
  <path id="Caminho_412" data-name="Caminho 412" d="M10.071,9a2.071,2.071,0,0,1,2.071,2.071v9.666a2.071,2.071,0,1,1-4.142,0V11.071A2.071,2.071,0,0,1,10.071,9Z" transform="translate(38.925 26.389)" fill="#fff"/>
  <path id="Caminho_413" data-name="Caminho 413" d="M18.143,14.071v5.523a2.071,2.071,0,1,1-4.143,0V14.071a2.071,2.071,0,1,1,4.142,0Z" transform="translate(24.64 27.531)" fill="#fff"/>
  <path id="Caminho_414" data-name="Caminho 414" d="M24.142,10.071V21.118a2.071,2.071,0,1,1-4.142,0V10.071a2.071,2.071,0,1,1,4.142,0Z" transform="translate(10.355 26.008)" fill="#fff"/>
  <path id="Caminho_415" data-name="Caminho 415" d="M29.427,10.374a2.053,2.053,0,0,1-1.292-.454L24.989,7.4a3.3,3.3,0,0,0-4.406.243,7.5,7.5,0,0,1-10.08.414l-5.2-4.4A2.071,2.071,0,1,1,7.981.508l5.2,4.4a3.329,3.329,0,0,0,4.477-.193,7.441,7.441,0,0,1,9.923-.552l3.144,2.526a2.071,2.071,0,0,1-1.294,3.688Z" transform="translate(24.403 22.944)" fill="#fff"/>
</svg>
