<svg xmlns="http://www.w3.org/2000/svg" width="80" height="80" viewBox="0 0 80 80">
  <g id="Grupo_1757" data-name="Grupo 1757" transform="translate(-17.679 -21)">
    <rect id="Retângulo_1196" data-name="Retângulo 1196" width="80" height="80" rx="18" transform="translate(17.679 21)" fill="#08d37d"/>
    <g id="chart-histogram" transform="translate(42.267 43.944)">
      <path id="Caminho_411" data-name="Caminho 411" d="M31.069,29H7.595a3.452,3.452,0,0,1-3.452-3.452V2.071A2.071,2.071,0,1,0,0,2.071V25.545A7.6,7.6,0,0,0,7.595,33.14H31.069a2.071,2.071,0,1,0,0-4.143Z" transform="translate(0 0.017)" fill="#fff"/>
      <path id="Caminho_412" data-name="Caminho 412" d="M10.071,9A2.071,2.071,0,0,0,8,11.071v9.666a2.071,2.071,0,1,0,4.143,0V11.071A2.071,2.071,0,0,0,10.071,9Z" transform="translate(3.047 3.445)" fill="#fff"/>
      <path id="Caminho_413" data-name="Caminho 413" d="M14,14.071v5.523a2.071,2.071,0,0,0,4.143,0V14.071a2.071,2.071,0,0,0-4.143,0Z" transform="translate(5.332 4.587)" fill="#fff"/>
      <path id="Caminho_414" data-name="Caminho 414" d="M20,10.071V21.118a2.071,2.071,0,1,0,4.142,0V10.071a2.071,2.071,0,1,0-4.142,0Z" transform="translate(7.617 3.064)" fill="#fff"/>
      <path id="Caminho_415" data-name="Caminho 415" d="M6.571,10.374a2.053,2.053,0,0,0,1.292-.454L11.009,7.4a3.3,3.3,0,0,1,4.406.243,7.5,7.5,0,0,0,10.08.414l5.2-4.4A2.071,2.071,0,1,0,28.017.508l-5.2,4.4a3.329,3.329,0,0,1-4.477-.193A7.441,7.441,0,0,0,8.421,4.16L5.277,6.686a2.071,2.071,0,0,0,1.294,3.688Z" transform="translate(1.714 0)" fill="#fff"/>
    </g>
  </g>
</svg>
