<svg xmlns="http://www.w3.org/2000/svg" width="12.786" height="12.786" viewBox="0 0 12.786 12.786">
  <g id="Grupo_1763" data-name="Grupo 1763" transform="translate(-1469.074 -787.074)">
    <path id="Caminho_437" data-name="Caminho 437" d="M10.122,0H2.664A2.667,2.667,0,0,0,0,2.664v7.458a2.667,2.667,0,0,0,2.664,2.664h7.458a2.667,2.667,0,0,0,2.664-2.664V2.664A2.667,2.667,0,0,0,10.122,0ZM2.664,1.065h7.458a1.6,1.6,0,0,1,1.6,1.6v7.458a1.572,1.572,0,0,1-.16.685L6.679,5.925a2.664,2.664,0,0,0-3.768,0L1.065,7.771V2.664a1.6,1.6,0,0,1,1.6-1.6Zm0,10.655a1.6,1.6,0,0,1-1.6-1.6V9.277l2.6-2.6a1.6,1.6,0,0,1,2.261,0l4.882,4.882a1.572,1.572,0,0,1-.685.16Z" transform="translate(1469.074 787.074)" fill="#838692"/>
    <path id="Caminho_438" data-name="Caminho 438" d="M14.365,7.229A1.865,1.865,0,1,0,12.5,5.365,1.865,1.865,0,0,0,14.365,7.229Zm0-2.664a.8.8,0,1,1-.8.8A.8.8,0,0,1,14.365,4.565Z" transform="translate(1463.234 785.439)" fill="#838692"/>
  </g>
</svg>
