<svg xmlns="http://www.w3.org/2000/svg" width="10.017" height="13.357" viewBox="0 0 10.017 13.357">
  <path id="Caminho_440" data-name="Caminho 440" d="M10.235,0H5.783A2.786,2.786,0,0,0,3,2.783V12.8a.557.557,0,0,0,.87.459l1.172-.8,1.172.8a.557.557,0,0,0,.629,0l1.169-.8,1.169.8a.557.557,0,0,0,.629,0l1.169-.8,1.169.8a.557.557,0,0,0,.87-.459V2.783A2.786,2.786,0,0,0,10.235,0ZM11.9,11.743l-.612-.419a.557.557,0,0,0-.63,0l-1.169.8-1.169-.8a.557.557,0,0,0-.629,0l-1.169.8-1.169-.8a.557.557,0,0,0-.628,0l-.617.419V2.783a1.67,1.67,0,0,1,1.67-1.67h4.452a1.67,1.67,0,0,1,1.67,1.67Z" transform="translate(-3)" fill="#838692"/>
  <g id="Grupo_1758" data-name="Grupo 1758" transform="translate(-3)">
    <rect id="Ret창ngulo_1209" data-name="Ret창ngulo 1209" width="6" height="1" rx="0.5" transform="translate(5 4.237)" fill="#838692"/>
    <rect id="Ret창ngulo_1210" data-name="Ret창ngulo 1210" width="5" height="1" rx="0.5" transform="translate(5 7.237)" fill="#838692"/>
  </g>
</svg>
