<svg xmlns="http://www.w3.org/2000/svg" width="16" height="16" viewBox="0 0 16 16">
  <g id="sign-in-alt" transform="translate(2 0)">
    <path id="Caminho_44" data-name="Caminho 44" d="M12.6,0H3.4A3.37,3.37,0,0,0,0,3.333v2a.667.667,0,0,0,1.333,0v-2a2.036,2.036,0,0,1,2.067-2h9.2a2.036,2.036,0,0,1,2.067,2v9.333a2.036,2.036,0,0,1-2.067,2H3.4a2.036,2.036,0,0,1-2.067-2v-2a.667.667,0,0,0-1.333,0v2A3.37,3.37,0,0,0,3.4,16h9.2A3.37,3.37,0,0,0,16,12.666V3.333A3.37,3.37,0,0,0,12.6,0Z" transform="translate(-2)" fill="#fff"/>
    <path id="Caminho_45" data-name="Caminho 45" d="M3,9.819a.688.688,0,0,0,.688.688h0l9.079-.021L9.792,13.463a.688.688,0,1,0,.974.974l3.157-3.157a2.065,2.065,0,0,0,0-2.92L10.767,5.2a.688.688,0,1,0-.974.974L12.727,9.11l-9.039.021A.688.688,0,0,0,3,9.819Z" transform="translate(-2.764 -1.82)" fill="#fff"/>
  </g>
</svg>
