<svg xmlns="http://www.w3.org/2000/svg" width="22.04" height="22.04" viewBox="0 0 22.04 22.04">
  <path id="circle-xmark-regular" d="M7.533,7.533a1,1,0,0,1,1.425,0l2.023,2.028,2.062-2.028a1,1,0,0,1,1.425,0,.935.935,0,0,1,0,1.425l-1.989,2.023,1.989,2.062a1.008,1.008,0,0,1-1.425,1.425l-2.062-1.989L8.958,14.468a.935.935,0,0,1-1.425,0,1,1,0,0,1,0-1.425l2.028-2.062L7.533,8.958a1,1,0,0,1,0-1.425ZM22.04,11.02a11.155,11.155,0,0,1-3.816,8.34,10.782,10.782,0,0,1-7.2,2.68A11.02,11.02,0,0,1,11.02,0a11.143,11.143,0,0,1,9.2,4.948A10.725,10.725,0,0,1,22.04,11.02ZM11.02,2.066a8.954,8.954,0,1,0,8.954,8.954A8.952,8.952,0,0,0,11.02,2.066Z" fill="#fd4651"/>
</svg>
